<svg xmlns="http://www.w3.org/2000/svg" xmlns:xlink="http://www.w3.org/1999/xlink" width="264.934" height="93.643" viewBox="0 0 264.934 93.643">
  <defs>
    <clipPath id="clip-path">
      <rect id="Rectangle_37" data-name="Rectangle 37" width="65.121" height="93.643" fill="none"/>
    </clipPath>
    <clipPath id="clip-path-2">
      <rect id="Rectangle_38" data-name="Rectangle 38" width="178.389" height="43.773" fill="none"/>
    </clipPath>
  </defs>
  <g id="logo-dreams" transform="translate(-111.112 -52)">
    <g id="Group_84" data-name="Group 84" transform="translate(111.112 52)">
      <g id="Group_83" data-name="Group 83" clip-path="url(#clip-path)">
        <path id="Path_38" data-name="Path 38" d="M56.507,1.145l-8.94,5.237v21.1L33.513,19.762,1.424,38.408l-.178.1V75.585L33.517,94.194,65.787,75.585V6.085Zm.026.823L64.7,6.314l-8.175,4.747L48.637,6.593ZM48.3,39.331V7.225l8.05,4.542V69.852l-8.123-4.883V49.006L33.883,40.668s-.216-.131-.328-.2l-.329.191L19.394,48.245V64.827l-8.3,5.161-.035-25.743L33.225,31.3l.29-.167.467.258Zm-14.78,34.3,14.375-8.049,8.06,4.888-22.428,12.4L11.41,70.616l8.316-5.169ZM20.125,64.822V48.671l13.428-7.383,14.013,8.134v15.54l-14,7.846ZM65.055,75.17,33.517,93.364,1.978,75.17V38.925L33.528,20.587,47.566,28.3v9.8L33.515,30.254,10.3,43.832l.038,27.013L33.511,83.7,57.006,70.7V11.6l8.049-4.674Z" transform="translate(-0.924 -0.849)" fill="#fc4c02"/>
        <path id="Path_39" data-name="Path 39" d="M32.775,93.644.246,74.886V37.514l.307-.178L32.768,18.617l13.8,7.582V5.386L55.759,0,65.3,5.081v69.8l-.129.074ZM.762,74.587,32.775,93.048,64.787,74.587V5.391L55.771.593,47.083,5.682v21.39L32.775,19.21.762,37.811ZM32.775,92.813.978,74.47V37.928L32.783,19.442l14.3,7.861V37.7L32.776,29.7,9.82,43.132l.037,26.713L32.77,82.552,56.006,69.7V10.6l8.566-4.974V74.47l-.129.075ZM1.494,74.172,32.775,92.217,64.055,74.172V6.526L56.523,10.9V70.005L32.77,83.143,9.341,70.15,9.3,42.836,32.77,29.108l13.8,7.71V27.609L32.79,20.035,1.494,38.225Zm31.288,8.147-.125-.069-22.5-12.47L18.982,64.3l.135.08L32.78,72.489l14.376-8.05,8.57,5.2Zm-21.6-12.564,21.6,11.974L54.7,69.615l-7.55-4.578L32.772,73.085l-.128-.076L18.988,64.9Zm21.64,2.5L19.125,64.12V47.67l.134-.073,13.556-7.454,14.268,8.281v15.84ZM19.642,63.826l13.184,7.835,13.741-7.7V48.721L32.808,40.736l-13.167,7.24ZM10.091,69.6l-.035-26.356L32.77,29.984l.594.329L47.3,38.044V5.934l8.566,4.833V69.46l-8.639-5.194V48.306L33.012,40.043l-.2-.121-.2.115L18.91,47.55V64.122Zm.482-26.06.034,25.131,7.788-4.841V47.244l.134-.073L32.36,39.587l.454-.264.13.076c.113.066.332.2.332.2l14.466,8.411V63.974l7.606,4.573V11.069l-7.533-4.25v32.1L32.775,30.577l-.163.094Zm45.21-33.033-8.4-4.763L55.785.824l8.7,4.632Zm-7.37-4.771,7.367,4.175,7.646-4.44L55.8,1.415Z" transform="translate(-0.182 -0.001)" fill="#fc4c02"/>
        <rect id="Rectangle_35" data-name="Rectangle 35" width="0.699" height="10.837" transform="translate(0.354 38.069) rotate(-59.457)" fill="#fc4c02"/>
        <path id="Path_40" data-name="Path 40" d="M9.778,150.551,0,144.782l.618-1.047L10.4,149.5ZM.707,144.6,9.6,149.844l.093-.158L.8,144.442Z" transform="translate(0 -106.621)" fill="#fc4c02"/>
        <rect id="Rectangle_36" data-name="Rectangle 36" width="0.699" height="10.74" transform="translate(32.262 82.261)" fill="#fc4c02"/>
        <path id="Path_41" data-name="Path 41" d="M125.16,328.84h-1.216V317.583h1.216Zm-.7-.516h.183V318.1h-.183Z" transform="translate(-91.941 -235.581)" fill="#fc4c02"/>
      </g>
    </g>
    <g id="Group_90" data-name="Group 90" transform="translate(197.657 77.337)">
      <g id="Group_87" data-name="Group 87" transform="translate(0 0)">
        <g id="Group_86" data-name="Group 86" clip-path="url(#clip-path-2)">
          <path id="Path_42" data-name="Path 42" d="M14.786,0A10.759,10.759,0,0,1,25.3,10.434v.986A10.681,10.681,0,0,1,22.687,18a13.129,13.129,0,0,1-2.639,2.23,10.894,10.894,0,0,1-5.262,1.516H.076A.067.067,0,0,1,0,21.671V3.867c.01-.05.035-.075.076-.075H4.2c.05.01.076.036.076.075v13.6h10.4a6.457,6.457,0,0,0,5.293-2.942,6.861,6.861,0,0,0,1.092-3.67A6.6,6.6,0,0,0,17.9,5.217a6.494,6.494,0,0,0-3.215-.941H.076A.067.067,0,0,1,0,4.2V.076Q.015,0,.076,0Z" transform="translate(0 0)" fill="#fff"/>
          <path id="Path_43" data-name="Path 43" d="M56.3,0a5.79,5.79,0,0,1,5.6,5.49V8.614a5.757,5.757,0,0,1-2.306,4.352,6.281,6.281,0,0,1-3.9,1.214l6.081,7.628-5.368-.03-6.2-7.6H40.456q-.015,0-.015-.076V9.979q.015-.076.076-.076H55.743a1.782,1.782,0,0,0,1.744-.91A13.342,13.342,0,0,0,57.669,5.9a1.628,1.628,0,0,0-1.244-1.592,1.527,1.527,0,0,0-.3-.031H40.881v17.4a.067.067,0,0,1-.076.075H36.68a.067.067,0,0,1-.076-.075V.076C36.615.025,36.639,0,36.68,0Z" transform="translate(-6.687 0)" fill="#fff"/>
          <path id="Path_44" data-name="Path 44" d="M98.429,0c.05.011.076.036.076.076V4.2a.068.068,0,0,1-.076.076H83.87a6.511,6.511,0,0,0-6.384,6.384v.425a6.407,6.407,0,0,0,2.608,5.065A6.268,6.268,0,0,0,83.84,17.47H98.429c.05.011.076.036.076.076v4.125a.068.068,0,0,1-.076.076H83.719a10.6,10.6,0,0,1-7.037-2.882A11.5,11.5,0,0,1,74.3,15.7a10.689,10.689,0,0,1-1.092-4.5v-.638a10.582,10.582,0,0,1,3.322-7.522A10.607,10.607,0,0,1,83.765,0Zm.076,12.891H76.986V8.72H98.505Z" transform="translate(-13.373 0)" fill="#fff"/>
          <path id="Path_45" data-name="Path 45" d="M125.329,0q.045.015,10.767,21.716l-.075.03H131.3l-1.941-3.67-12.784-.016-2.033,3.685H109.89l-.076-.03L120.551,0Zm-2.4,4.822-4.474,9.16,9.16.046Z" transform="translate(-20.06 0)" fill="#fff"/>
          <path id="Path_46" data-name="Path 46" d="M151.826,0a32.02,32.02,0,0,1,2.093,3.64q.409.638,7.537,13.376h.03Q169.478,2.73,171.071,0h4.17q.076.016.076.076v21.6a.067.067,0,0,1-.076.075h-4.124a.067.067,0,0,1-.076-.075V8.75h-.046q-.121.319-7.264,12.966l-.075.03h-4.368q-.683-.984-3.549-6.248-.076-.045-3.792-6.7H151.9V21.671a.067.067,0,0,1-.076.075H147.7a.067.067,0,0,1-.076-.075V.076c.011-.051.035-.076.076-.076Z" transform="translate(-26.967 0)" fill="#fff"/>
          <path id="Path_47" data-name="Path 47" d="M212.5,0q.076.016.076.076V4.2a.067.067,0,0,1-.076.075H192.954q-1.486,0-1.516,2.214,0,2.261,1.592,2.26h12.633a7.83,7.83,0,0,1,3.98.842,6.267,6.267,0,0,1,2.086,2.38,6.876,6.876,0,0,1,.849,3.284v.257a6.719,6.719,0,0,1-.69,3.208,5.832,5.832,0,0,1-2.063,2.154,7.646,7.646,0,0,1-4.056.871H187.313a.067.067,0,0,1-.076-.075V17.546q.015-.076.076-.076h19.139q1.834,0,1.85-2.108,0-2.321-1.743-2.32l-13.088-.016a6.083,6.083,0,0,1-4.383-1.562,5.668,5.668,0,0,1-1.926-4.079V6.9A6.936,6.936,0,0,1,190.043.789,6,6,0,0,1,192.878,0Z" transform="translate(-34.189 0)" fill="#fff"/>
        </g>
      </g>
      <rect id="Rectangle_39" data-name="Rectangle 39" width="0.329" height="11.604" transform="translate(1.401 32.037)" fill="#fff"/>
      <path id="Path_48" data-name="Path 48" d="M17.838,39.217V50.2l-7.2-10.978H10.3V50.8h.329V39.81l7.2,10.995h.329V39.217Z" transform="translate(-1.882 -7.164)" fill="#fff"/>
      <g id="Group_89" data-name="Group 89" transform="translate(0 0)">
        <g id="Group_88" data-name="Group 88" clip-path="url(#clip-path-2)">
          <path id="Path_49" data-name="Path 49" d="M28.3,41.916a5.169,5.169,0,0,1,4.714-2.86A5.667,5.667,0,0,1,36.37,40a5.356,5.356,0,0,1,1.937,2.6h-.33a4.794,4.794,0,0,0-1.8-2.357,5.379,5.379,0,0,0-3.165-.89,4.945,4.945,0,0,0-2.571.684A4.806,4.806,0,0,0,28.622,42a6.377,6.377,0,0,0-.667,2.991,6.3,6.3,0,0,0,.667,2.968,4.792,4.792,0,0,0,1.83,1.953,4.959,4.959,0,0,0,2.563.684,5.412,5.412,0,0,0,3.165-.882,4.744,4.744,0,0,0,1.8-2.349h.33a5.307,5.307,0,0,1-1.937,2.6,5.7,5.7,0,0,1-3.354.931,5.258,5.258,0,0,1-2.786-.75A5.141,5.141,0,0,1,28.3,48.047a7.135,7.135,0,0,1,0-6.132" transform="translate(-5.043 -7.134)" fill="#fff"/>
          <path id="Path_50" data-name="Path 50" d="M50.555,50.16a5.2,5.2,0,0,1-1.97-2.1,6.988,6.988,0,0,1,0-6.132,5.2,5.2,0,0,1,1.97-2.1,5.825,5.825,0,0,1,5.72,0,5.2,5.2,0,0,1,1.971,2.1,6.988,6.988,0,0,1,0,6.132,5.2,5.2,0,0,1-1.971,2.1,5.831,5.831,0,0,1-5.72,0m5.5-.231a4.845,4.845,0,0,0,1.871-1.961,6.813,6.813,0,0,0,0-5.951,4.852,4.852,0,0,0-1.871-1.962,5.426,5.426,0,0,0-5.275,0,4.85,4.85,0,0,0-1.87,1.962,6.813,6.813,0,0,0,0,5.951,4.843,4.843,0,0,0,1.87,1.961,5.426,5.426,0,0,0,5.275,0" transform="translate(-8.746 -7.138)" fill="#fff"/>
          <path id="Path_51" data-name="Path 51" d="M75.459,50.8l-3.1-5.06H69.442V50.8h-.329V39.2h2.9a4.029,4.029,0,0,1,2.843.874A3.55,3.55,0,0,1,75,44.7a3.524,3.524,0,0,1-2.258,1.006L75.871,50.8Zm-3.412-5.373a3.574,3.574,0,0,0,2.547-.808,2.843,2.843,0,0,0,.848-2.16q0-2.933-3.429-2.934H69.442v5.9Z" transform="translate(-12.625 -7.16)" fill="#fff"/>
          <path id="Path_52" data-name="Path 52" d="M90.365,44.784a4.2,4.2,0,0,1-2.769.792h-2.6V50.8h-.329V39.2H87.6a4,4,0,0,1,2.81.842,3.067,3.067,0,0,1,.9,2.356,2.949,2.949,0,0,1-.939,2.39m-.19-.3a2.715,2.715,0,0,0,.8-2.094,2.765,2.765,0,0,0-.791-2.143,3.776,3.776,0,0,0-2.588-.725h-2.6v5.7h2.6a3.725,3.725,0,0,0,2.579-.741" transform="translate(-15.465 -7.16)" fill="#fff"/>
          <path id="Path_53" data-name="Path 53" d="M102.243,50.16a5.2,5.2,0,0,1-1.97-2.1,6.988,6.988,0,0,1,0-6.132,5.2,5.2,0,0,1,1.97-2.1,5.825,5.825,0,0,1,5.72,0,5.2,5.2,0,0,1,1.971,2.1,6.988,6.988,0,0,1,0,6.132,5.2,5.2,0,0,1-1.971,2.1,5.831,5.831,0,0,1-5.72,0m5.5-.231a4.844,4.844,0,0,0,1.871-1.961,6.813,6.813,0,0,0,0-5.951,4.852,4.852,0,0,0-1.871-1.962,5.426,5.426,0,0,0-5.275,0,4.85,4.85,0,0,0-1.87,1.962,6.813,6.813,0,0,0,0,5.951,4.843,4.843,0,0,0,1.87,1.961,5.426,5.426,0,0,0,5.275,0" transform="translate(-18.188 -7.138)" fill="#fff"/>
          <path id="Path_54" data-name="Path 54" d="M127.148,50.8l-3.1-5.06h-2.918V50.8H120.8V39.2h2.9a4.029,4.029,0,0,1,2.843.874,3.55,3.55,0,0,1,.141,4.632,3.524,3.524,0,0,1-2.258,1.006L127.56,50.8Zm-3.412-5.373a3.574,3.574,0,0,0,2.547-.808,2.843,2.843,0,0,0,.848-2.16q0-2.933-3.429-2.934h-2.571v5.9Z" transform="translate(-22.067 -7.16)" fill="#fff"/>
          <path id="Path_55" data-name="Path 55" d="M142.577,47.68h-5.736l-1.22,3.2h-.378l4.3-11.258h.329l4.286,11.258h-.379Zm-.115-.3-2.753-7.237-2.753,7.237Z" transform="translate(-24.705 -7.237)" fill="#fff"/>
          <path id="Path_56" data-name="Path 56" d="M160.846,40.713A5.691,5.691,0,0,1,162.411,45a5.688,5.688,0,0,1-1.565,4.285,6.307,6.307,0,0,1-4.566,1.517H153.23V39.2h3.049a6.314,6.314,0,0,1,4.566,1.517m-.231,8.341A5.444,5.444,0,0,0,162.082,45a5.448,5.448,0,0,0-1.467-4.056,5.924,5.924,0,0,0-4.335-1.45H153.56V50.5h2.719a5.917,5.917,0,0,0,4.335-1.45" transform="translate(-27.991 -7.16)" fill="#fff"/>
          <path id="Path_57" data-name="Path 57" d="M174.321,50.16a5.2,5.2,0,0,1-1.97-2.1,6.988,6.988,0,0,1,0-6.132,5.2,5.2,0,0,1,1.97-2.1,5.825,5.825,0,0,1,5.72,0,5.2,5.2,0,0,1,1.971,2.1,6.988,6.988,0,0,1,0,6.132,5.2,5.2,0,0,1-1.971,2.1,5.831,5.831,0,0,1-5.72,0m5.5-.231a4.845,4.845,0,0,0,1.871-1.961,6.813,6.813,0,0,0,0-5.951,4.852,4.852,0,0,0-1.871-1.962,5.426,5.426,0,0,0-5.275,0,4.85,4.85,0,0,0-1.87,1.962,6.813,6.813,0,0,0,0,5.951,4.843,4.843,0,0,0,1.87,1.961,5.426,5.426,0,0,0,5.275,0" transform="translate(-31.354 -7.138)" fill="#fff"/>
          <path id="Path_58" data-name="Path 58" d="M199.225,50.8l-3.1-5.06h-2.918V50.8h-.329V39.2h2.9a4.029,4.029,0,0,1,2.843.874,3.55,3.55,0,0,1,.141,4.632,3.524,3.524,0,0,1-2.258,1.006l3.132,5.093Zm-3.412-5.373a3.574,3.574,0,0,0,2.547-.808,2.843,2.843,0,0,0,.848-2.16q0-2.933-3.429-2.934h-2.571v5.9Z" transform="translate(-35.233 -7.16)" fill="#fff"/>
          <path id="Path_59" data-name="Path 59" d="M214.654,47.68h-5.736l-1.22,3.2h-.378l4.3-11.258h.329l4.286,11.258h-.379Zm-.115-.3-2.753-7.237-2.753,7.237Z" transform="translate(-37.871 -7.237)" fill="#fff"/>
        </g>
      </g>
    </g>
  </g>
</svg>
