<svg xmlns="http://www.w3.org/2000/svg" width="98.591" height="75.874" viewBox="0 0 98.591 75.874">
  <path id="sink" d="M95.033,45.312H81.454V42.055A1.558,1.558,0,0,0,79.9,40.5H74.381V38.182h3.677a4.679,4.679,0,1,0,0-9.358H69.494A4.684,4.684,0,0,0,64.815,33.5v4.638H63.463V40.5H54.228V38.141H52.9V10.7a1.49,1.49,0,1,1,2.98,0V12.04a1.558,1.558,0,0,0-.818,1.372v4.411a1.558,1.558,0,0,0,1.558,1.558h7.733a1.558,1.558,0,0,0,1.558-1.558V13.412A1.558,1.558,0,0,0,65.1,12.04V10.7a10.7,10.7,0,1,0-21.405,0V38.142H42.363V40.5H33.128V38.142H31.776V33.5A4.684,4.684,0,0,0,27.1,28.824H18.533a4.679,4.679,0,1,0,0,9.358H22.21V40.5H16.7a1.558,1.558,0,0,0-1.558,1.558v3.257H1.558A1.559,1.559,0,0,0,0,46.871c0,5.394,3.43,12.086,9.174,17.9,5.548,5.615,11.974,9.1,16.771,9.1h44.7c4.8,0,11.223-3.488,16.771-9.1,5.745-5.815,9.174-12.506,9.174-17.9A1.558,1.558,0,0,0,95.033,45.312ZM67.932,33.5a1.564,1.564,0,0,1,1.563-1.563h8.564a1.563,1.563,0,1,1,0,3.125H71.47a1.558,1.558,0,0,0-1.558,1.558v1.518h-1.98V33.5ZM62.8,16.264H58.181V14.97H62.8v1.294ZM46.806,10.7a7.586,7.586,0,1,1,15.172,0v1.151H59V10.7a4.606,4.606,0,1,0-9.213,0V38.142h-2.98V10.7ZM18.533,35.065a1.563,1.563,0,1,1,0-3.125H27.1A1.564,1.564,0,0,1,28.659,33.5v4.638h-1.98V36.624a1.558,1.558,0,0,0-1.558-1.558H18.533Zm-.28,8.548H78.338v1.7H18.253ZM85.2,62.58c-4.908,4.967-10.621,8.177-14.554,8.177h-44.7c-3.934,0-9.646-3.21-14.554-8.177-4.612-4.668-7.57-9.834-8.164-14.151H93.364C92.769,52.746,89.811,57.912,85.2,62.58Z" transform="translate(1 1)" fill="#fc4c02" stroke="#fff" stroke-width="2"/>
</svg>
