<svg xmlns="http://www.w3.org/2000/svg" width="42" height="42" viewBox="0 0 42 42">
  <g id="icon-linkedin" transform="translate(-579 -3896)">
    <g id="Component_4_1" data-name="Component 4 – 1" transform="translate(579 3896)">
      <g id="Component_3_1" data-name="Component 3 – 1">
        <g id="Ellipse_6" data-name="Ellipse 6" fill="none" stroke="#fff" stroke-width="1">
          <circle cx="21" cy="21" r="21" stroke="none"/>
          <circle cx="21" cy="21" r="20.5" fill="none"/>
        </g>
      </g>
      <g id="_216394_linkedin_social_icon" data-name="216394_linkedin_social_icon" transform="translate(6.617 6)">
        <g id="Group_137" data-name="Group 137" transform="translate(5.017 10.371)">
          <path id="Path_137" data-name="Path 137" d="M9.028,22.427H5V9H9.028Zm14.77,0H19.77V15.254c0-1.869-.666-2.8-1.986-2.8a1.984,1.984,0,0,0-2.042,1.564v8.408H11.714s.054-12.085,0-13.427h3.18l.246,2.685h.083a4.483,4.483,0,0,1,3.956-2.253,4.17,4.17,0,0,1,3.339,1.344A5.811,5.811,0,0,1,23.8,14.845Z" transform="translate(-5 -9)" fill="#fff"/>
        </g>
        <g id="Group_138" data-name="Group 138" transform="translate(4.95 5)">
          <ellipse id="Ellipse_7" data-name="Ellipse 7" cx="2.081" cy="2.014" rx="2.081" ry="2.014" fill="#fff"/>
        </g>
      </g>
    </g>
  </g>
</svg>
