<svg xmlns="http://www.w3.org/2000/svg" width="42" height="42" viewBox="0 0 42 42">
  <g id="icon-ig-orange" transform="translate(-499 -4167)">
    <g id="Path_138" data-name="Path 138" transform="translate(499 4167)" fill="#fff">
      <path d="M 21 41.5 C 18.2322998046875 41.5 15.54765033721924 40.95804977416992 13.0206298828125 39.88920974731445 C 10.57956027984619 38.85673141479492 8.387160301208496 37.3785285949707 6.504310131072998 35.49568939208984 C 4.621469974517822 33.61283874511719 3.143270015716553 31.42044067382812 2.110790014266968 28.9793701171875 C 1.041949987411499 26.45235061645508 0.5 23.7677001953125 0.5 21 C 0.5 18.2322998046875 1.041949987411499 15.54765033721924 2.110790014266968 13.0206298828125 C 3.143270015716553 10.57956027984619 4.621469974517822 8.387160301208496 6.504310131072998 6.504310131072998 C 8.387160301208496 4.621469974517822 10.57956027984619 3.143270015716553 13.0206298828125 2.110790014266968 C 15.54765033721924 1.041949987411499 18.2322998046875 0.5 21 0.5 C 23.7677001953125 0.5 26.45235061645508 1.041949987411499 28.9793701171875 2.110790014266968 C 31.42044067382812 3.143270015716553 33.61283874511719 4.621469974517822 35.49568939208984 6.504310131072998 C 37.3785285949707 8.387160301208496 38.85673141479492 10.57956027984619 39.88920974731445 13.0206298828125 C 40.95804977416992 15.54765033721924 41.5 18.2322998046875 41.5 21 C 41.5 23.7677001953125 40.95804977416992 26.45235061645508 39.88920974731445 28.9793701171875 C 38.85673141479492 31.42044067382812 37.3785285949707 33.61283874511719 35.49568939208984 35.49568939208984 C 33.61283874511719 37.3785285949707 31.42044067382812 38.85673141479492 28.9793701171875 39.88920974731445 C 26.45235061645508 40.95804977416992 23.7677001953125 41.5 21 41.5 Z" stroke="none"/>
      <path d="M 21 1 C 18.29957962036133 1 15.68045997619629 1.528659820556641 13.21540069580078 2.5712890625 C 10.83394050598145 3.578559875488281 8.694950103759766 5.020778656005859 6.857860565185547 6.857860565185547 C 5.020778656005859 8.694950103759766 3.578559875488281 10.83394050598145 2.5712890625 13.21540069580078 C 1.528659820556641 15.68045997619629 1 18.29957962036133 1 21 C 1 23.70042037963867 1.528659820556641 26.31954002380371 2.5712890625 28.78459930419922 C 3.578559875488281 31.16606140136719 5.020778656005859 33.30504989624023 6.857860565185547 35.14213943481445 C 8.694950103759766 36.97922134399414 10.83394050598145 38.42144012451172 13.21540069580078 39.4287109375 C 15.68045997619629 40.47134017944336 18.29957962036133 41 21 41 C 23.70042037963867 41 26.31954002380371 40.47134017944336 28.78459930419922 39.4287109375 C 31.16606140136719 38.42144012451172 33.30504989624023 36.97922134399414 35.14213943481445 35.14213943481445 C 36.97922134399414 33.30504989624023 38.42144012451172 31.16606140136719 39.4287109375 28.78459930419922 C 40.47134017944336 26.31954002380371 41 23.70042037963867 41 21 C 41 18.29957962036133 40.47134017944336 15.68045997619629 39.4287109375 13.21540069580078 C 38.42144012451172 10.83394050598145 36.97922134399414 8.694950103759766 35.14213943481445 6.857860565185547 C 33.30504989624023 5.020778656005859 31.16606140136719 3.578559875488281 28.78459930419922 2.5712890625 C 26.31954002380371 1.528659820556641 23.70042037963867 1 21 1 M 21 0 C 32.59798049926758 0 42 9.402019500732422 42 21 C 42 32.59798049926758 32.59798049926758 42 21 42 C 9.402019500732422 42 0 32.59798049926758 0 21 C 0 9.402019500732422 9.402019500732422 0 21 0 Z" stroke="none" fill="#fff"/>
    </g>
    <g id="Instagram" transform="translate(509 4177)">
      <path id="Path_83" data-name="Path 83" d="M14.872,20.073H6.2a5.2,5.2,0,0,1-5.2-5.2V6.2A5.2,5.2,0,0,1,6.2,1h8.67a5.2,5.2,0,0,1,5.2,5.2v8.67A5.2,5.2,0,0,1,14.872,20.073ZM6.2,2.734A3.468,3.468,0,0,0,2.734,6.2v8.67A3.468,3.468,0,0,0,6.2,18.34h8.67a3.468,3.468,0,0,0,3.468-3.468V6.2a3.468,3.468,0,0,0-3.468-3.468Z" transform="translate(0 0)" fill="#fc4c02"/>
      <g id="_Group_" data-name="&lt;Group&gt;" transform="translate(5.335 5.335)">
        <path id="Path_84" data-name="Path 84" d="M11.2,16.4a5.2,5.2,0,1,1,5.2-5.2A5.2,5.2,0,0,1,11.2,16.4Zm0-8.67A3.468,3.468,0,1,0,14.67,11.2,3.468,3.468,0,0,0,11.2,7.734Z" transform="translate(-6 -6)" fill="#fc4c02"/>
      </g>
      <g id="_Group_2" data-name="&lt;Group&gt;" transform="translate(14.624 3.725)">
        <circle id="Ellipse_3" data-name="Ellipse 3" cx="1" cy="1" r="1" transform="translate(0.376 0.275)" fill="#fc4c02"/>
      </g>
    </g>
  </g>
</svg>
