<svg xmlns="http://www.w3.org/2000/svg" width="83.985" height="62.174" viewBox="0 0 83.985 62.174">
  <g id="houses-svgrepo-com" transform="translate(1.5 -36.154)">
    <path id="Path_289" data-name="Path 289" d="M80.177,58.656l-27.188-20.5a2.031,2.031,0,0,0-2.446,0l-4.47,3.37-4.47-3.37a2.031,2.031,0,0,0-2.446,0L34.8,41.439l-4.358-3.286a2.031,2.031,0,0,0-2.446,0L.808,58.656A2.032,2.032,0,0,0,0,60.277V94.8a2.031,2.031,0,0,0,2.031,2.031H78.954A2.031,2.031,0,0,0,80.985,94.8V60.277a2.031,2.031,0,0,0-.808-1.622Zm-3.254,34.11H69.6V60.277a2.031,2.031,0,0,0-.808-1.622L49.447,44.067l2.319-1.749L76.924,61.289Zm-18.484,0V60.277a2.031,2.031,0,0,0-.808-1.622L38.174,43.983l2.208-1.665L65.539,61.29V92.766h-7.1Zm-25.894,0H25.893V78.038h6.652V92.765Zm4.062,0V76.007a2.031,2.031,0,0,0-2.031-2.031H23.862a2.031,2.031,0,0,0-2.031,2.031V92.765H4.062V61.289L29.219,42.318,54.377,61.289V92.765Z" transform="translate(0)" fill="#fc4c02" stroke="#fff" stroke-width="3"/>
  </g>
</svg>
